<svg xmlns="http://www.w3.org/2000/svg" width="220" height="150" viewBox="0 0 220 150"><path d="M50 30h120c30 0 44 20 48 50l2 30c2 22 -14 36 -30 30l-34 -24h-76l-34 24c-16 6 -32 -8 -30 -30l2 -30c4 -30 18 -50 48 -50z" fill="#2b2340" stroke="#fff4dc" stroke-width="6" stroke-linejoin="round"/><rect x="44" y="66" width="44" height="14" rx="4" fill="#fff4dc"/><rect x="59" y="51" width="14" height="44" rx="4" fill="#fff4dc"/><circle cx="164" cy="56" r="9" fill="#6cc24a"/><circle cx="184" cy="74" r="9" fill="#ff6b5e"/><circle cx="144" cy="74" r="9" fill="#5ce1ff"/><circle cx="164" cy="92" r="9" fill="#f4b83b"/><circle cx="96" cy="104" r="14" fill="#4a4060" stroke="#fff4dc" stroke-width="3"/><circle cx="128" cy="104" r="14" fill="#4a4060" stroke="#fff4dc" stroke-width="3"/></svg>
