<svg xmlns="http://www.w3.org/2000/svg" width="640" height="140" viewBox="0 0 640 140"><path d="M10 20Q320 90 630 20" stroke="#5f3b1c" stroke-width="4" fill="none"/><path d="M15.8 24.6L55.8 24.6L35.8 74.6Z" fill="#ff6b5e" stroke="#2b2340" stroke-opacity="0.3" stroke-width="2"/><circle cx="35.8" cy="40.6" r="5" fill="#ffffff" opacity="0.7"/><path d="M67.5 33.4L107.5 33.4L87.5 83.4Z" fill="#f4b83b" stroke="#2b2340" stroke-opacity="0.3" stroke-width="2"/><circle cx="87.5" cy="49.4" r="5" fill="#ffffff" opacity="0.7"/><path d="M119.2 41.3L159.2 41.3L139.2 91.3Z" fill="#1fa5a0" stroke="#2b2340" stroke-opacity="0.3" stroke-width="2"/><circle cx="139.2" cy="57.3" r="5" fill="#ffffff" opacity="0.7"/><path d="M170.8 47.8L210.8 47.8L190.8 97.8Z" fill="#8e5cd9" stroke="#2b2340" stroke-opacity="0.3" stroke-width="2"/><circle cx="190.8" cy="63.8" r="5" fill="#ffffff" opacity="0.7"/><path d="M222.5 52.3L262.5 52.3L242.5 102.3Z" fill="#5ce1ff" stroke="#2b2340" stroke-opacity="0.3" stroke-width="2"/><circle cx="242.5" cy="68.3" r="5" fill="#ffffff" opacity="0.7"/><path d="M274.2 54.7L314.2 54.7L294.2 104.7Z" fill="#6cc24a" stroke="#2b2340" stroke-opacity="0.3" stroke-width="2"/><circle cx="294.2" cy="70.7" r="5" fill="#ffffff" opacity="0.7"/><path d="M325.8 54.7L365.8 54.7L345.8 104.7Z" fill="#ff6b5e" stroke="#2b2340" stroke-opacity="0.3" stroke-width="2"/><circle cx="345.8" cy="70.7" r="5" fill="#ffffff" opacity="0.7"/><path d="M377.5 52.3L417.5 52.3L397.5 102.3Z" fill="#f4b83b" stroke="#2b2340" stroke-opacity="0.3" stroke-width="2"/><circle cx="397.5" cy="68.3" r="5" fill="#ffffff" opacity="0.7"/><path d="M429.2 47.8L469.2 47.8L449.2 97.8Z" fill="#1fa5a0" stroke="#2b2340" stroke-opacity="0.3" stroke-width="2"/><circle cx="449.2" cy="63.8" r="5" fill="#ffffff" opacity="0.7"/><path d="M480.8 41.3L520.8 41.3L500.8 91.3Z" fill="#8e5cd9" stroke="#2b2340" stroke-opacity="0.3" stroke-width="2"/><circle cx="500.8" cy="57.3" r="5" fill="#ffffff" opacity="0.7"/><path d="M532.5 33.4L572.5 33.4L552.5 83.4Z" fill="#5ce1ff" stroke="#2b2340" stroke-opacity="0.3" stroke-width="2"/><circle cx="552.5" cy="49.4" r="5" fill="#ffffff" opacity="0.7"/><path d="M584.2 24.6L624.2 24.6L604.2 74.6Z" fill="#6cc24a" stroke="#2b2340" stroke-opacity="0.3" stroke-width="2"/><circle cx="604.2" cy="40.6" r="5" fill="#ffffff" opacity="0.7"/></svg>
