<svg xmlns="http://www.w3.org/2000/svg" width="460" height="700" viewBox="0 0 460 700"><defs><linearGradient id="obsStone" x1="0" y1="0" x2="1" y2="0"><stop offset="0" stop-color="#c9c6bb" stop-opacity="1"/><stop offset="1" stop-color="#9c9a92" stop-opacity="1"/></linearGradient><linearGradient id="obsBrass" x1="0" y1="0" x2="1" y2="1"><stop offset="0" stop-color="#ffe08a" stop-opacity="1"/><stop offset="0.5" stop-color="#f4b83b" stop-opacity="1"/><stop offset="1" stop-color="#c98a1b" stop-opacity="1"/></linearGradient><radialGradient id="obsCore" cx="0.5" cy="0.5" r="0.5"><stop offset="0" stop-color="#ffffff" stop-opacity="1"/><stop offset="0.4" stop-color="#5ce1ff" stop-opacity="1"/><stop offset="1" stop-color="#5ce1ff" stop-opacity="0"/></radialGradient></defs><path d="M40 680h380l-24 -40h-332z" fill="#5f5c56"/><path d="M64 640h332l-20 -34h-292z" fill="#9c9a92"/><path d="M110 606L136 250h188l26 356z" fill="url(#obsStone)"/><path d="M137 290H323" stroke="#5f5c56" stroke-opacity="0.35" stroke-width="3"/><path d="M134.3 334H325.7" stroke="#5f5c56" stroke-opacity="0.35" stroke-width="3"/><path d="M131.7 378H328.3" stroke="#5f5c56" stroke-opacity="0.35" stroke-width="3"/><path d="M129 422H331" stroke="#5f5c56" stroke-opacity="0.35" stroke-width="3"/><path d="M126.4 466H333.6" stroke="#5f5c56" stroke-opacity="0.35" stroke-width="3"/><path d="M123.8 510H336.2" stroke="#5f5c56" stroke-opacity="0.35" stroke-width="3"/><path d="M121.1 554H338.9" stroke="#5f5c56" stroke-opacity="0.35" stroke-width="3"/><path d="M118.5 598H341.5" stroke="#5f5c56" stroke-opacity="0.35" stroke-width="3"/><path d="M170 590C140 540 320 520 290 470S150 420 180 370S320 330 280 280" fill="none" stroke="#5ce1ff" stroke-width="10" stroke-linecap="round" opacity="0.9"/><path d="M170 590C140 540 320 520 290 470S150 420 180 370S320 330 280 280" fill="none" stroke="#ffffff" stroke-width="3" stroke-linecap="round" opacity="0.8"/><path d="M196 606v-70a34 34 0 0 1 68 0v70z" fill="#5f3b1c"/><path d="M204 606v-66a26 26 0 0 1 52 0v66z" fill="#9a6334"/><circle cx="230" cy="560" r="10" fill="none" stroke="#f4b83b" stroke-width="4"/><ellipse cx="230" cy="252" rx="130" ry="30" fill="#c98a1b"/><ellipse cx="230" cy="244" rx="130" ry="30" fill="url(#obsBrass)"/><path d="M120 244a110 120 0 0 1 220 0z" fill="url(#obsBrass)"/><path d="M150 236a80 92 0 0 1 160 0" fill="none" stroke="#c98a1b" stroke-width="4"/><path d="M234 176L234.4 176.8L234.6 177.7L234.7 178.7L234.5 179.8L234.1 180.9L233.4 181.9L232.5 182.8L231.3 183.6L230 184.2L228.5 184.5L226.9 184.6L225.2 184.3L223.5 183.7L221.9 182.8L220.5 181.5L219.2 179.9L218.2 178.1L217.6 176L217.3 173.8L217.5 171.4L218 169.1L219.1 166.8L220.5 164.7L222.4 162.8L224.6 161.3L227.2 160.1L230 159.4L233 159.2L236 159.5L239 160.4L241.9 161.9L244.5 163.8L246.8 166.3L248.7 169.2L250 172.5L250.8 176L250.9 179.7L250.4 183.4L249.2 187.1L247.4 190.6L244.9 193.7L241.8 196.4L238.2 198.6L234.3 200.2L230 201L225.6 201.1L221.1 200.4L216.8 198.9L212.7 196.6L209.1 193.6L205.9 189.9L203.4 185.7L201.7 181L200.8 176L200.8 170.8L201.7 165.7L203.5 160.7L206.2 156L209.7 151.8L214 148.3L218.9 145.5L224.3 143.6L230 142.6L235.9 142.6L241.7 143.7L247.4 145.9L252.7 149L257.4 153L261.4 157.9L264.5 163.5L266.6 169.6L267.6 176L267.5 182.6L266.2 189.2L263.8 195.5L260.2 201.4L255.7 206.6L250.2 211L244 214.4L237.2 216.7L230 217.8L222.7 217.6L215.4 216.2L208.4 213.4L201.9 209.5L196.2 204.4L191.4 198.3L187.7 191.4L185.2 183.9L184 176" fill="none" stroke="#c98a1b" stroke-width="6" stroke-linecap="round"/><g transform="rotate(-28 290 150)"><rect x="270" y="118" width="170" height="44" rx="14" fill="#c98a1b"/><rect x="276" y="122" width="150" height="36" rx="12" fill="#f4b83b"/><rect x="410" y="112" width="30" height="56" rx="8" fill="#ffe08a" stroke="#c98a1b" stroke-width="3"/></g><circle cx="230" cy="96" r="70" fill="url(#obsCore)"/><ellipse cx="230" cy="96" rx="92" ry="26" fill="none" stroke="#f4b83b" stroke-width="7"/><ellipse cx="230" cy="96" rx="30" ry="88" fill="none" stroke="#c98a1b" stroke-width="6" transform="rotate(35 230 96)"/><path d="M249.1 107L230 118L210.9 107L210.9 85L230 74L249.1 85Z" fill="#c8f6ff" stroke="#ffffff" stroke-width="3"/><path d="M120 244l-40 30v80l40 -26z" fill="#ff6b5e"/><path d="M340 244l40 30v80l-40 -26z" fill="#1fa5a0"/></svg>
