<svg xmlns="http://www.w3.org/2000/svg" width="180" height="180" viewBox="0 0 180 180"><ellipse cx="90" cy="164" rx="50" ry="10" fill="#000" opacity="0.15"/><path d="M52 120c-10 -40 20 -70 50 -60s40 50 10 80s-52 18 -60 -20z" fill="#6cc24a" stroke="#3f8f3a" stroke-width="5"/><path d="M66 116c0 -24 16 -42 36 -40" stroke="#a8e27a" stroke-width="6" fill="none" stroke-linecap="round" opacity="0.8"/><path d="M96 62c-6 -8 -6 -16 4 -18c10 -2 12 8 2 12c-10 4 -14 -6 -4 -12c10 -6 16 4 6 10c-10 6 -14 -8 -4 -14c8 -6 18 -2 16 8" stroke="#f4b83b" stroke-width="5" fill="none" stroke-linecap="round"/><path d="M114 30c10 -10 24 -8 30 2c-10 6 -22 8 -30 -2z" fill="#a8e27a" stroke="#3f8f3a" stroke-width="3"/><circle cx="78" cy="104" r="6" fill="#ffffff" opacity="0.7"/></svg>
